<?xml version="1.0" encoding="UTF-8" standalone="no"?>
<!-- Created with Inkscape (http://www.inkscape.org/) -->

<svg
   width="60mm"
   height="60mm"
   viewBox="0 0 60 60"
   version="1.1"
   id="svg835"
   xml:space="preserve"
   sodipodi:docname="icon.svg"
   inkscape:version="1.3 (0e150ed6c4, 2023-07-21)"
   xmlns:inkscape="http://www.inkscape.org/namespaces/inkscape"
   xmlns:sodipodi="http://sodipodi.sourceforge.net/DTD/sodipodi-0.dtd"
   xmlns="http://www.w3.org/2000/svg"
   xmlns:svg="http://www.w3.org/2000/svg"><sodipodi:namedview
     id="namedview1"
     pagecolor="#ffffff"
     bordercolor="#666666"
     borderopacity="1.0"
     inkscape:showpageshadow="2"
     inkscape:pageopacity="0.0"
     inkscape:pagecheckerboard="0"
     inkscape:deskcolor="#d1d1d1"
     inkscape:document-units="mm"
     inkscape:zoom="3.239672"
     inkscape:cx="112.04838"
     inkscape:cy="93.990998"
     inkscape:window-width="1920"
     inkscape:window-height="991"
     inkscape:window-x="-9"
     inkscape:window-y="-9"
     inkscape:window-maximized="1"
     inkscape:current-layer="svg835" /><defs
     id="defs832"><filter
       style="color-interpolation-filters:sRGB"
       id="filter2863-7"
       x="-0.00083422885"
       y="-0.00111679"
       width="1.0016685"
       height="1.0022336"><feColorMatrix
         values="-1 0 0 0 1 0 -1 0 0 1 0 0 -1 0 1 0.21 0.72 0.07 1 0 "
         result="fbSourceGraphic"
         id="feColorMatrix2861-5" /><feColorMatrix
         result="fbSourceGraphicAlpha"
         in="fbSourceGraphic"
         values="0 0 0 -1 0 0 0 0 -1 0 0 0 0 -1 0 0 0 0 1 0"
         id="feColorMatrix4380-8" /><feColorMatrix
         id="feColorMatrix4382-5"
         values="-1 0 0 0 1 0 -1 0 0 1 0 0 -1 0 1 0.21 0.72 0.07 1 0 "
         result="color2"
         in="fbSourceGraphic" /></filter></defs><rect
     style="display:inline;fill:#ffffff;fill-opacity:0.47013;stroke:#ffffff;stroke-width:0.1;stroke-dasharray:none;stroke-dashoffset:0;stroke-opacity:1;filter:url(#filter2863-7)"
     id="rect3650-7"
     width="59.935593"
     height="44.771175"
     x="0.050008576"
     y="0.050002307" /><text
     xml:space="preserve"
     style="font-style:normal;font-weight:normal;font-size:10.5833px;line-height:1.25;font-family:sans-serif;fill:#4a4a4a;fill-opacity:1;stroke:none;stroke-width:0.264583;filter:url(#filter2863-7)"
     x="13.13217"
     y="34.629463"
     id="text1723-6-0"
     transform="matrix(1.6097485,0,0,1.6097485,-18.321143,-1.5032496)"><tspan
       id="tspan1721-6-0"
       x="13.13217"
       y="34.629463"
       style="font-style:normal;font-variant:normal;font-weight:bold;font-stretch:normal;font-family:Ubuntu;-inkscape-font-specification:'Ubuntu Bold';fill:#4a4a4a;fill-opacity:1;stroke-width:0.264583">EMMA</tspan></text><path
     d="m 36.6529,9.106215 0.002,-0.0076 -4.487,-1.34588 -4.30303,1.29041 -4.39975,-1.33556 V 7.70792 L 22.92014,7.542441 v 14.20284 l 4.94458,1.54976 4.30303,-1.29024 3.6569,1.09748 1.29081,0.38695 v -1.34751 l -4e-5,-12.916471 z m -7.12791,9.132146 -0.18094,-1.8077 0.74293,-0.26203 h 5.73733 v 1.06328 z m 2.56885,-4.80431 h 3.73088 v 1.44457 h -3.51353 z m 3.73074,-3.23757 v 1.94709 l -3.9249,4e-5 -0.42773,-2.835218 0.69599,-0.208734 z m -5.60149,-0.51361 0.78331,5.19589 h -1.13998 l -2.19943,0.77465 -1.19759,-5.686235 1.39497,0.423114 z m -6.01255,-0.400445 0.85033,0.257815 1.37847,6.54513 -2.22896,0.78544 z m 0,11.516285 v -2.5597 l 3.88104,-1.36769 0.48691,4.86249 -0.71369,0.21386 z m 5.62688,0.55797 -0.18341,-1.83207 2.84792,-0.45501 v 1.68826 l -0.33453,-0.10082 z m 3.95487,-0.21249 v -2.28123 l 2.03243,-0.32495 v 3.21616 z"
     id="path392-9-8"
     style="display:inline;fill:#4a4a4a;fill-opacity:1;stroke-width:0.0147652;filter:url(#filter2863-7)"
     transform="matrix(2.0368162,0,0,2.0368162,-31.140741,-10.966915)" /></svg>
